<svg xmlns="http://www.w3.org/2000/svg" viewBox="0 0 24 24" fill="none" stroke="white" stroke-width="2" stroke-linecap="round" stroke-linejoin="round">
    <path d="M9 12l2 2 4-4"/>
    <path d="M21 12c.552 0 1-.448 1-1s-.448-1-1-1-1 .448-1 1 .448 1 1 1z"/>
    <path d="M3 12c.552 0 1-.448 1-1s-.448-1-1-1-1 .448-1 1 .448 1 1 1z"/>
    <path d="M12 21c.552 0 1-.448 1-1s-.448-1-1-1-1 .448-1 1 .448 1 1 1z"/>
    <path d="M12 3c.552 0 1-.448 1-1s-.448-1-1-1-1 .448-1 1 .448 1 1 1z"/>
    <path d="M18.364 18.364c.391.391 1.024.391 1.415 0s.391-1.024 0-1.415-.391-1.024-.391-1.024"/>
    <path d="M4.636 5.636c.391-.391 1.024-.391 1.415 0s.391 1.024 0 1.415-.391 1.024-.391 1.024"/>
    <circle cx="12" cy="12" r="3"/>
    <path d="M12 1v6m5 5h6m-7 5v6m-5-5H1"/>
</svg>